<svg width="20" height="19" viewBox="0 0 20 19" fill="none" xmlns="http://www.w3.org/2000/svg">
<g clip-path="url(#clip0_572_2993)">
<path d="M18.2959 18.6138L11.4131 12.2073C8.35124 14.2331 4.13216 13.7376 1.70715 11.0674C-0.717861 8.39719 -0.539799 4.44309 2.11678 1.97107C4.77266 -0.502031 9.02188 -0.668459 11.8917 1.58822C14.7614 3.84491 15.2942 7.77171 13.1172 10.6214L20 17.0279L18.2971 18.6127L18.2959 18.6138ZM7.22558 2.24229C4.9418 2.24181 2.97149 3.73373 2.50756 5.81478C2.04363 7.89584 3.21358 9.99406 5.30909 10.8391C7.4046 11.6841 9.84971 11.0438 11.1641 9.30564C12.4784 7.56753 12.3007 5.20942 10.7386 3.659L11.4673 4.33148L10.6459 3.56933L10.6315 3.55588C9.73035 2.71212 8.50386 2.23908 7.22558 2.24229Z" fill="#25B1A2"/>
</g>
<defs>
<clipPath id="clip0_572_2993">
<rect width="20" height="19" fill="white"/>
</clipPath>
</defs>
</svg>
