<svg width="71" height="71" viewBox="0 0 71 71" fill="none" xmlns="http://www.w3.org/2000/svg">
<rect width="71" height="71" fill="#25B1A2"/>
<path fill-rule="evenodd" clip-rule="evenodd" d="M17 20.8007C17 18.699 18.7013 17 20.8023 17H51.2208C53.3217 17 55.0231 18.699 55.0231 20.8007V43.5997C55.0231 45.7013 53.3217 47.4002 51.2208 47.4002H41.7594L37.0659 54.4357C36.8308 54.7883 36.4352 55 36.0115 55C35.5879 55 35.1923 54.7883 34.9572 54.4357L30.2637 47.4002H20.8023C18.7013 47.4002 17 45.7013 17 43.5997V20.8007ZM27.1395 34.7441H29.6744V32.2092H27.1395V34.7441ZM34.7441 34.7441H37.279V32.2092H34.7441V34.7441ZM44.8836 34.7441H42.3487V32.2092H44.8836V34.7441Z" fill="#f1f1f1"/>
</svg>
