<svg width="71" height="71" viewBox="0 0 71 71" fill="none" xmlns="http://www.w3.org/2000/svg">
<rect width="71" height="71" fill="#25B1A2"/>
<path d="M36 45.5L37.9 41.7V31.9302C41.1699 31.0809 43.6 28.1302 43.6 24.6C43.6 20.4086 40.1914 17 36 17C31.8086 17 28.4 20.4086 28.4 24.6C28.4 28.1302 30.8301 31.0809 34.1 31.9302V41.7L36 45.5Z" fill="#F3F3F3"/>
<path d="M44.1073 33.2697L43.0946 36.9329C48.0175 38.2933 51.2 40.9096 51.2 43.6C51.2 47.1948 44.9585 51.2 36 51.2C27.0415 51.2 20.8 47.1948 20.8 43.6C20.8 40.9096 23.9825 38.2933 28.9073 36.931L27.8946 33.2678C21.1743 35.126 17 39.0837 17 43.6C17 49.9916 25.3467 55 36 55C46.6533 55 55 49.9916 55 43.6C55 39.0837 50.8257 35.126 44.1073 33.2697Z" fill="#F3F3F3"/>
</svg>
