<svg width="71" height="71" viewBox="0 0 71 71" fill="none" xmlns="http://www.w3.org/2000/svg">
<rect width="71" height="71" fill="#25B1A2"/>
<path d="M43.8 30.9333H42.5333V24.6C42.5333 22.5844 41.7326 20.6513 40.3073 19.226C38.8821 17.8007 36.949 17 34.9333 17C32.9177 17 30.9846 17.8007 29.5593 19.226C28.134 20.6513 27.3333 22.5844 27.3333 24.6V30.9333H26.0667C24.7234 30.9348 23.4355 31.4691 22.4856 32.4189C21.5357 33.3688 21.0015 34.6567 21 36V49.9333C21.0015 51.2766 21.5357 52.5645 22.4856 53.5144C23.4355 54.4643 24.7234 54.9985 26.0667 55H43.8C45.1433 54.9985 46.4312 54.4643 47.3811 53.5144C48.3309 52.5645 48.8652 51.2766 48.8667 49.9333V36C48.8652 34.6567 48.3309 33.3688 47.3811 32.4189C46.4312 31.4691 45.1433 30.9348 43.8 30.9333ZM40 30.9333H29.8667V24.6C29.8667 23.2562 30.4005 21.9675 31.3507 21.0173C32.3008 20.0671 33.5896 19.5333 34.9333 19.5333C36.2771 19.5333 37.5658 20.0671 38.516 21.0173C39.4662 21.9675 40 23.2562 40 24.6V30.9333Z" fill="#f1f1f1"/>
</svg>
