<svg width="71" height="71" viewBox="0 0 71 71" fill="none" xmlns="http://www.w3.org/2000/svg">
<rect width="71" height="71" fill="#25B1A2"/>
<path d="M58 36.4615L52.25 24.7692H43.625V18.9231C43.625 17.3154 42.3312 16 40.75 16H14.875C13.2937 16 12 17.3154 12 18.9231V42.3077L14.875 45.2308H18.5205C18.0317 46.0902 17.75 47.0898 17.75 48.1538C17.75 51.3838 20.3231 54 23.5 54C26.6769 54 29.25 51.3838 29.25 48.1538C29.25 47.0898 28.9683 46.0902 28.4795 45.2308H44.3955C43.9067 46.0902 43.625 47.0898 43.625 48.1538C43.625 51.3838 46.1981 54 49.375 54C52.5519 54 55.125 51.3838 55.125 48.1538C55.125 47.0898 54.8433 46.0902 54.3545 45.2308H58V36.4615ZM43.625 36.4615V27.6923H49.5849L53.8974 36.4615H43.625Z" fill="#F3F3F3"/>
</svg>
